# xmcd CD database file
#
# Track frame offsets:
#	150
#	13252
#	25390
#	39765
#	55155
#	69962
#	81540
#	92565
#	106060
#	122570
#	135032
#	150402
#	166057
#	176960
#	190745
#	204397
#	217362
#	232512
#	247010
#	259147
#	272282
#
# Disc length: 3886 seconds
#
# Revision: 3
# Processed by: cddbd v1.5.2PL0 Copyright (c) Steve Scherf et al.
# Submitted via: CDex 1.51
#
DISCID=0d0f2c15
DTITLE=Tammy Wynette - I Love Country
DYEAR=1988
DGENRE=Country
TTITLE0=Womanhood
TTITLE1=Two Story House
TTITLE2=Crying In The Rain
TTITLE3=Bring Back My Baby To Me
TTITLE4=He Was There (When I Needed You)
TTITLE5=Cheatin' Is
TTITLE6=Heaven's Just A Sin Away
TTITLE7=Cowboys Don't Shoot Straight (Like They  Used To)
TTITLE8=Sometimes When We Touch
TTITLE9=Funny Face
TTITLE10=You Needed Me
TTITLE11=Sweet Music Man
TTITLE12=A Pair Of Old Sneakers
TTITLE13=Dear Daughters
TTITLE14=Easy Come, Easy Go
TTITLE15=I'd Like To See Jesus (On The Midnight Special)
TTITLE16=Even The Strong Get Lonely Sometime
TTITLE17=Unwed Fathers
TTITLE18=Stand By Your Man
TTITLE19=Kids Say The Darndest Things
TTITLE20=Bedtime Story
EXTD=YEAR: 1988
EXTT0=
EXTT1=
EXTT2=
EXTT3=
EXTT4=
EXTT5=
EXTT6=
EXTT7=
EXTT8=
EXTT9=
EXTT10=
EXTT11=
EXTT12=
EXTT13=
EXTT14=
EXTT15=
EXTT16=
EXTT17=
EXTT18=
EXTT19=
EXTT20=
PLAYORDER=
